# xmcd
#
# Track frame offsets:
# 150
# 13851
# 28291
# 45980
# 57643
#
# Disc length: 1164 seconds
#
# Revision: 0
# Processed by: cddbd v1.4PL0 Copyright (c) Steve Scherf et al.
# Submitted via: Audion 3.0.2 (http://www.panic.com/audion/)
#
DISCID=3f048a05
DTITLE=Alcoa - i will not hesitate to burn these bridges and in turn construct new ones
DYEAR=1900
DGENRE=
TTITLE0=From safer shores
TTITLE1=Dear Michael, the regrets are killing me as well
TTITLE2=again, mid-winter and alone
TTITLE3=i do not feel welcome here anymore
TTITLE4=a soldier is down
EXTD=
EXTT0=
EXTT1=
EXTT2=
EXTT3=
EXTT4=
PLAYORDER=
